<?xml version="1.0" encoding="utf-8"?>
<!-- Generator: Adobe Illustrator 28.0.0, SVG Export Plug-In . SVG Version: 6.00 Build 0)  -->
<svg version="1.1" id="Calque_1" xmlns="http://www.w3.org/2000/svg" xmlns:xlink="http://www.w3.org/1999/xlink" x="0px" y="0px"
	 viewBox="0 0 331 117" style="enable-background:new 0 0 331 117;" xml:space="preserve">
<style type="text/css">
	.st0{fill:#E4352D;}
	.st1{fill:#25418F;}
</style>
<g>
	<g>
		<path class="st0" d="M70.9,58.2c-4.9,0-9.7,0-14.6,0c-0.8,0-1.1-0.2-1.1-1c0-9.5,0-19,0-28.5c0-0.8,0.2-1.1,1-1.1
			c7.7,0.1,14.2,3,19.8,8.1c5.4,4.9,8.8,10.9,10,18.1c0.2,1.1,0.2,2.2,0.3,3.4c0.1,0.8-0.1,1.1-1,1.1C80.6,58.2,75.7,58.2,70.9,58.2
			"/>
		<path class="st0" d="M38.2,60c4.7,0,9.4,0,14.2,0c0.9,0,1.1,0.3,1.1,1.1c0,0.4,0,0.8,0,1.2c0,8.8,0,17.5,0,26.3c0,1.7-0.3,2-2,1.7
			c-6.4-1-12.4-3.1-17.3-7.5c-6.5-5.9-10.6-13.1-11.1-22c0-0.8,0.3-0.8,0.9-0.8C28.7,60,33.4,60,38.2,60"/>
		<path class="st0" d="M53.3,96.5c0,1.2,0,2.3,0,3.5c0,0.7-0.2,0.9-0.9,0.9c-5.9-0.2-11.5-1.6-16.7-4.3c-11.3-6-18.8-15.1-22-27.5
			c-0.7-2.6-1-5.3-1.1-8c0-0.8,0.2-1,1-1c2.4,0.1,4.8,0,7.2,0c0.5,0,0.8,0.1,0.8,0.7c-0.1,7.4,3.1,13.5,7.6,19.2
			c5.5,6.8,12.8,10.2,21.2,11.7c0.3,0.1,0.6,0.1,0.9,0.2c2,0.4,2,0.3,2,2.3L53.3,96.5L53.3,96.5z"/>
		<path class="st0" d="M92.8,58.2c-1.1,0-2.2,0-3.3,0c-0.7,0-0.9-0.1-1-0.9c-1-9-4.6-16.7-11.3-23c-5.1-4.7-11.2-7.2-18-8.3
			c-1-0.1-1.9-0.3-2.9-0.4c-0.8,0-1-0.2-1-1c0.1-2.1,0.1-4.3,0-6.4c0-0.8,0.3-1,1-1c10.4,0,19.3,3.8,27,10.7
			c6.8,6.1,11.3,13.5,13.1,22.6c0.5,2.2,0.6,4.5,0.7,6.8c0,0.6-0.2,0.9-0.8,0.8C95.1,58.2,94,58.2,92.8,58.2"/>
	</g>
	<g>
		<path class="st1" d="M70.8,60c4.8,0,9.6,0,14.5,0c0.8,0,1,0.2,1,1c0,6.3-2.3,11.7-6.1,16.5C75.3,83.8,69,88,61,89.6
			c-1.6,0.3-3.2,0.4-4.8,0.4c-0.7,0-1-0.2-1-0.9c0-9.4,0-18.8,0-28.2c0-0.8,0.3-0.9,1-0.9C61.1,60,65.9,60,70.8,60"/>
		<path class="st1" d="M37.9,58.2c-4.5,0-9.1,0-13.6,0c-0.8,0-1.1-0.2-1.1-1c0.1-7.5,3-13.8,7.9-19.2c4.6-5.1,10.3-8.5,17-9.9
			c1.3-0.3,2.6-0.3,4-0.5c1.1-0.2,1.3,0.3,1.3,1.3c0,4.3,0,8.7,0,13c0,4.5,0,9.1,0.1,13.6c0,0.4,0,0.7,0,1.1
			c-0.1,1.3-0.5,1.7-1.9,1.7c-3,0-6.1,0-9.1,0C41,58.2,39.5,58.2,37.9,58.2C37.9,58.2,37.9,58.2,37.9,58.2"/>
		<path class="st1" d="M55.2,96.4c0-1.2,0-2.3,0-3.5c0-0.7,0.2-0.9,0.9-1c5.4-0.5,10.6-1.7,15.4-4.5c8.9-5.2,14.3-13.1,16.5-23.2
			c0.3-1.2,0.4-2.4,0.5-3.5c0.1-0.8,0.4-0.9,1.1-0.9c2.1,0,4.3,0.1,6.4,0c1,0,1.2,0.4,1.2,1.2c0,3.9-0.5,7.7-1.9,11.4
			c-5.9,15.1-16.6,24.5-32.5,27.9c-2.3,0.5-4.6,0.6-6.9,0.7c-0.6,0-0.6-0.2-0.6-0.7C55.2,99.1,55.2,97.8,55.2,96.4"/>
		<path class="st1" d="M17,58.1c-1.1,0-2.2-0.1-3.3,0c-0.9,0.1-1.1-0.2-1.1-1.1c0-7,1.9-13.5,5.6-19.4c6.4-10.4,15.6-17.2,27.7-19.8
			c2.2-0.5,4.4-0.6,6.6-0.7c0.7,0,0.9,0.1,0.9,0.9c0,2.2-0.1,4.4,0,6.7c0,0.7-0.2,0.8-0.9,0.9c-10.6,1.2-19.2,5.9-25.4,14.6
			c-3.6,5-5.4,10.8-5.7,16.9c0,0.8-0.3,0.9-1,0.9C19.3,58.1,18.1,58.1,17,58.1"/>
	</g>
	<g>
		<path class="st1" d="M118.9,43.8c2.8-1.6,5.9-2.4,9.2-2.4c3,0,5.8,0.6,8.4,1.8c2.5,1.2,4.7,3,6.5,5.4l3.3-2.5
			c-2-2.8-4.6-4.9-7.7-6.5c-3.1-1.5-6.7-2.3-10.5-2.3c-6.4,0-11.8,2.1-16.1,6.3c-4.3,4.2-6.4,9.3-6.4,15.4c0,5.8,1.8,10.8,5.3,14.9
			c4.2,4.9,10,7.3,17.3,7.3c3.8,0,7.3-0.7,10.4-2.2c3.1-1.4,5.7-3.5,7.8-6.1l-3.3-2.5c-3.9,4.6-8.8,6.9-14.7,6.9
			c-5.3,0-9.7-1.7-13.2-5.1c-3.5-3.4-5.2-7.6-5.2-12.7c0-3.4,0.8-6.4,2.3-9.1C113.9,47.5,116.1,45.4,118.9,43.8"/>
		<path class="st1" d="M153.9,37.2c-0.9,0-1.6,0.3-2.3,1c-0.6,0.6-1,1.4-1,2.3c0,0.9,0.3,1.7,1,2.3c0.6,0.6,1.4,1,2.3,1
			c0.9,0,1.7-0.3,2.3-1c0.6-0.6,1-1.4,1-2.3c0-0.9-0.3-1.7-1-2.3C155.6,37.5,154.8,37.2,153.9,37.2"/>
		<rect x="152" y="49.2" class="st1" width="4" height="30.9"/>
		<path class="st1" d="M179.3,48.4c-2.5,0-4.7,0.5-6.8,1.5c-2.1,1-3.9,2.5-5.6,4.6V38.3h-4V80h4v-5.7c1.6,2.2,3.4,3.8,5.4,4.9
			c2,1.1,4.3,1.6,6.8,1.6c4.4,0,8.1-1.6,11.2-4.7c3.1-3.2,4.7-7,4.7-11.4c0-4.5-1.5-8.4-4.6-11.5C187.3,50,183.6,48.4,179.3,48.4
			 M189.4,70.8c-1.1,2-2.6,3.5-4.5,4.6c-1.9,1.1-3.9,1.6-6.1,1.6c-3.4,0-6.3-1.2-8.7-3.6s-3.5-5.4-3.5-9c0-2.3,0.5-4.5,1.6-6.3
			c1-1.9,2.5-3.4,4.5-4.5c1.9-1.1,4-1.7,6.2-1.7c2.1,0,4.1,0.6,6,1.7c1.9,1.1,3.4,2.6,4.5,4.6c1.1,2,1.7,4.1,1.7,6.3
			C191,66.8,190.5,68.8,189.4,70.8"/>
		<rect x="200.9" y="38.2" class="st1" width="4" height="41.8"/>
		<path class="st1" d="M234.4,73.2c-1.2,1.1-3,2-4.5,2.5c-1.3,0.4-2.6,0.6-4.1,0.6c-0.3,0-0.6,0-0.9,0c-0.5-0.1-1.5-0.3-2.7-0.6
			c-2.1-0.8-3.9-1.9-5.2-3.3c-0.5-0.5-0.9-1.1-1.3-1.6l25-14.4l-0.2-0.5c-0.7-1.4-1.7-2.8-3-4.1c-1.3-1.3-2.9-2.3-4.8-3.1
			c-1.8-0.8-3.8-1.3-5.8-1.4c-2.9-0.2-5.6,0.3-8.1,1.6c-2.5,1.3-4.6,3.1-6.2,5.5c-1.6,2.4-2.6,5-2.9,8c-0.1,2.2,0.2,4.4,0.9,6.4
			c0.7,2,1.8,3.9,3.2,5.4c1.4,1.6,3.1,2.8,5,3.8c1.9,0.9,4,1.5,6.3,1.7c0.4,0,0.8,0,1.3,0c2.2,0,4.4-0.4,6.5-1.3
			c0.8-0.3,1.5-0.7,2.2-1.2l0.3-0.2l0-4.8L234.4,73.2z M235.4,55.3l-21.2,12.3c-0.5-1.6-0.7-3.2-0.6-4.7c0.1-0.3,0.1-0.7,0.2-1.3
			c0.1-0.5,0.1-0.9,0.2-1.1c0.6-2.2,1.6-4.1,3-5.6c1.3-1.5,2.9-2.5,4.6-3.1c1.4-0.5,2.9-0.8,4.4-0.8c0.3,0,0.6,0,0.9,0
			c1.9,0.1,3.6,0.6,5.2,1.5C233.4,53.2,234.6,54.1,235.4,55.3"/>
	</g>
	<g>
		<path class="st1" d="M260.8,38.3h8.2c4.6,0,7.6,0.2,9.3,0.6c2.4,0.6,4.4,1.8,5.9,3.6c1.5,1.8,2.3,4.1,2.3,6.8
			c0,2.2-0.5,4.2-1.6,5.9c-1,1.7-2.5,3-4.5,3.8c-2,0.9-4.6,1.3-8.1,1.3l14.7,19H282l-14.7-19h-2.3v19h-4.1L260.8,38.3L260.8,38.3z
			 M264.9,42.3v13.9l7.1,0.1c2.7,0,4.8-0.3,6.1-0.8c1.3-0.5,2.3-1.4,3.1-2.5c0.7-1.1,1.1-2.4,1.1-3.8c0-1.4-0.4-2.6-1.1-3.7
			c-0.7-1.1-1.7-1.9-2.9-2.4c-1.2-0.5-3.2-0.7-6-0.7C272.2,42.3,264.9,42.3,264.9,42.3z"/>
		<path class="st1" d="M291.8,37.3h3.9v17.1c1.6-2.1,3.3-3.6,5.2-4.7s3.9-1.5,6.2-1.5c2.3,0,4.3,0.6,6,1.7s3.1,2.7,3.9,4.6
			c0.8,1.9,1.3,5,1.3,9.1v15.6h-3.9V64.9c0-3.5-0.1-5.8-0.4-7c-0.5-2-1.4-3.5-2.6-4.5s-2.9-1.5-5-1.5c-2.4,0-4.5,0.8-6.3,2.3
			c-1.9,1.6-3.1,3.5-3.7,5.8c-0.4,1.5-0.6,4.2-0.6,8.3v11.1h-3.9V37.3z"/>
	</g>
	<g>
		<path class="st0" d="M248.8,78.9v-5.1h0.9V78h2.8v-4.2h0.9V78h3.5v-4.2h0.9v5.1L248.8,78.9L248.8,78.9z"/>
		<path class="st0" d="M257.8,73.2l-9-1.3v-0.1l7.4-3.6l-7.4-3.6v-0.1l9-1.3v0.9l-6.4,0.9l6.4,3.2v0.2l-6.5,3.2l6.5,0.9V73.2z"/>
		<path class="st0" d="M248.8,61.9v-1.8c0-1,0-1.7,0.1-2.1c0.1-0.5,0.4-0.9,0.8-1.3c0.4-0.3,0.9-0.5,1.5-0.5c0.6,0,1.1,0.2,1.5,0.5
			s0.6,0.8,0.8,1.3c0.1,0.4,0.1,1.2,0.1,2.3V61h4.2v0.9L248.8,61.9L248.8,61.9z M249.7,61h3l0-1.5c0-0.6-0.1-1.1-0.2-1.3
			c-0.1-0.3-0.3-0.5-0.5-0.7c-0.2-0.2-0.5-0.2-0.8-0.2c-0.3,0-0.6,0.1-0.8,0.2c-0.2,0.2-0.4,0.4-0.5,0.6s-0.2,0.7-0.2,1.3L249.7,61
			L249.7,61z"/>
		<path class="st0" d="M248.8,55.1v-0.9h8.1v-3.4h0.9v4.3H248.8z"/>
		<path class="st0" d="M248.6,45.6c0-1.4,0.5-2.5,1.4-3.4c0.9-0.9,2-1.4,3.3-1.4c1.3,0,2.4,0.5,3.3,1.4s1.4,2,1.4,3.3
			c0,1.3-0.5,2.5-1.4,3.4c-0.9,0.9-2,1.4-3.3,1.4c-0.9,0-1.7-0.2-2.4-0.6s-1.3-1-1.7-1.7C248.8,47.2,248.6,46.4,248.6,45.6z
			 M249.5,45.6c0,0.7,0.2,1.3,0.5,1.9s0.8,1.1,1.4,1.4c0.6,0.3,1.2,0.5,2,0.5c1.1,0,2-0.4,2.7-1.1c0.7-0.7,1.1-1.6,1.1-2.7
			c0-0.7-0.2-1.3-0.5-1.9c-0.3-0.6-0.8-1.1-1.4-1.4c-0.6-0.3-1.2-0.5-2-0.5c-0.7,0-1.4,0.2-1.9,0.5s-1,0.8-1.4,1.4
			C249.7,44.3,249.5,44.9,249.5,45.6z"/>
		<path class="st0" d="M248.8,39.7v-0.9h9v0.9H248.8z"/>
	</g>
</g>
</svg>
